<svg xmlns="http://www.w3.org/2000/svg" viewBox="0 0 330.5 61.7"><path d="M21.7 61.7c-4.9.1-9.6-1.2-13.7-3.9-3.8-2.5-6.6-6.3-8-10.6l8.4-3.1c1.2 2.7 3 5 5.5 6.6 2.4 1.6 5.3 2.5 8.3 2.4 2.8.1 5.6-.7 7.9-2.4 2-1.7 3.1-4.2 2.9-6.8 0-1.2-.3-2.4-.8-3.5-.5-1-1.1-1.8-1.8-2.6-.9-.9-2-1.6-3.2-2.1-1.4-.7-2.6-1.2-3.5-1.6-.9-.4-2.3-.9-4.1-1.5-2.3-.8-4-1.4-5.1-1.9-1.5-.7-3-1.4-4.5-2.3-1.6-.8-3-1.9-4.2-3.2-1.1-1.2-1.9-2.6-2.5-4.1C.7 15.4 2.4 8.7 7.2 4.5c3.4-3 8-4.5 13.8-4.5 4.9 0 8.9 1.1 12.1 3.2 3.1 2 5.3 5.1 6.3 8.6l-8.2 2.7c-.8-1.8-2.2-3.4-4-4.4-2.1-1.2-4.5-1.8-6.9-1.7-2.4-.1-4.7.5-6.7 1.9-1.6 1.3-2.5 3.2-2.4 5.3 0 1.6.7 3.1 1.9 4.1 1.1 1.1 2.5 2 3.9 2.6 1.4.6 3.4 1.3 6.2 2.3 1.7.6 3 1.1 3.8 1.4.8.3 2 .8 3.6 1.6 1.3.6 2.5 1.2 3.7 2 1 .7 2 1.6 3 2.4 1 .9 1.9 1.9 2.6 3.1.7 1.2 1.2 2.5 1.5 3.8.4 1.6.7 3.2.6 4.8 0 5.6-1.9 9.9-5.7 13.1-3.8 3.2-8.7 4.7-14.7 4.7Zm54.7-1L55.9 1h9.5l13.5 41.6c.7 2.2 1.4 4.5 1.9 6.8.5-2.3 1.1-4.6 1.9-6.8L96.1 1h9.5L85.2 60.7h-8.9Zm47.2 0V1h37v8.4h-28.1v16.4h18.1v8.4h-18.1v18.2h30v8.4h-38.9Zm61.5 0V1h8.9v51.1h29.1v8.5h-38Zm71.4-51.2v51.1h-8.9V9.5h-16.9V1h42.6v8.5h-16.9Zm35.2 51.2V1h37v8.4h-28.1v16.4h18.1v8.4h-18.1v18.2h30v8.4h-38.9Z" style="fill:#4a4a55"/></svg>
